<?xml version="1.0" standalone="no"?>
<!DOCTYPE svg PUBLIC "-//W3C//DTD SVG 20010904//EN"
 "http://www.w3.org/TR/2001/REC-SVG-20010904/DTD/svg10.dtd">
<svg version="1.0" xmlns="http://www.w3.org/2000/svg"
 width="128.000000pt" height="128.000000pt" viewBox="0 0 128.000000 128.000000"
 preserveAspectRatio="xMidYMid meet">
<metadata>
Created by potrace 1.14, written by Peter Selinger 2001-2017
</metadata>
<g transform="translate(0.000000,128.000000) scale(0.100000,-0.100000)"
fill="#000000" stroke="none">
<path d="M700 968 c-182 -629 -239 -832 -235 -839 8 -13 62 -27 74 -20 9 6 51
133 66 201 2 8 51 179 110 380 97 337 104 366 88 378 -9 6 -29 12 -43 12 -26
0 -29 -6 -60 -112z"/>
<path d="M167 782 c-109 -109 -167 -174 -167 -188 0 -23 323 -354 345 -354 14
0 55 42 55 57 0 6 -63 73 -140 151 -77 77 -140 143 -140 146 0 3 63 69 140
146 77 77 140 146 140 153 0 15 -41 57 -56 57 -5 0 -85 -75 -177 -168z"/>
<path d="M902 927 c-12 -13 -22 -29 -22 -35 0 -7 63 -75 140 -152 77 -77 140
-142 140 -146 0 -3 -63 -69 -140 -146 -77 -78 -140 -146 -140 -153 0 -14 42
-55 57 -55 6 0 85 75 177 166 111 111 166 174 166 188 0 14 -55 76 -165 186
-90 91 -170 166 -178 168 -7 1 -23 -8 -35 -21z"/>
</g>
</svg>
